<svg width="512" height="512" viewBox="0 0 512 512" fill="none" xmlns="http://www.w3.org/2000/svg">
  <defs>
    <linearGradient id="bg" x1="86" y1="74" x2="423" y2="438" gradientUnits="userSpaceOnUse">
      <stop stop-color="#2563EB"/>
      <stop offset="1" stop-color="#0F766E"/>
    </linearGradient>
    <linearGradient id="accent" x1="166" y1="154" x2="360" y2="354" gradientUnits="userSpaceOnUse">
      <stop stop-color="#F8FAFC"/>
      <stop offset="1" stop-color="#DBEAFE"/>
    </linearGradient>
  </defs>

  <rect x="44" y="44" width="424" height="424" rx="120" fill="url(#bg)"/>
  <circle cx="390" cy="138" r="22" fill="#F59E0B" fill-opacity="0.95"/>
  <path d="M145 167C145 150.431 158.431 137 175 137H321C337.569 137 351 150.431 351 167V336.5C351 351.135 339.135 363 324.5 363H175C158.431 363 145 349.569 145 333V167Z" fill="url(#accent)" fill-opacity="0.18"/>
  <path d="M180 165C180 158.373 185.373 153 192 153H318C324.627 153 330 158.373 330 165V330.5C330 337.127 324.627 342.5 318 342.5H192C185.373 342.5 180 337.127 180 330.5V165Z" fill="url(#accent)"/>
  <path d="M214 194H293.5C299.851 194 305 199.149 305 205.5C305 211.851 299.851 217 293.5 217H214C207.649 217 202.5 211.851 202.5 205.5C202.5 199.149 207.649 194 214 194Z" fill="#1D4ED8"/>
  <path d="M214 241H282C288.351 241 293.5 246.149 293.5 252.5C293.5 258.851 288.351 264 282 264H214C207.649 264 202.5 258.851 202.5 252.5C202.5 246.149 207.649 241 214 241Z" fill="#0F766E"/>
  <path d="M214 288H265C271.351 288 276.5 293.149 276.5 299.5C276.5 305.851 271.351 311 265 311H214C207.649 311 202.5 305.851 202.5 299.5C202.5 293.149 207.649 288 214 288Z" fill="#F59E0B"/>
  <path d="M124 297.833C124 283.893 135.441 272.956 149.364 273.58C171.685 274.581 193.812 279.316 214.717 287.592C239.078 297.236 261.193 311.863 279.642 330.562C291.149 342.224 289.064 361.747 275.532 370.956C261.918 380.22 243.872 375.259 232.21 363.752C219.109 350.822 203.432 340.706 186.195 333.882C174.481 329.245 162.154 326.575 149.689 325.998C135.625 325.347 124 311.905 124 297.833Z" fill="#F8FAFC"/>
</svg>
